<svg xmlns="http://www.w3.org/2000/svg" xmlns:xlink="http://www.w3.org/1999/xlink" x="0px" y="0px" width="850.39px" height="850.39px" viewBox="0 0 850.39 850.39" style="enable-background:new 0 0 850.39 850.39;" xml:space="preserve">
<style type="text/css">
	.st0{fill:#007F2C;}
	.st1{fill:#BBBCBD;}
	.st2{fill:#E3000F;}
</style>
<g id="BG">
</g>
<g id="Logo">
	<g>
		<g>
			<g>
				<path class="st0" d="M796.73,466.34c-10.03-0.02-18.17,8.09-18.17,18.13c0,10.01,8.14,18.12,18.17,18.12      c9.99,0,18.12-8.11,18.12-18.12C814.85,474.43,806.72,466.32,796.73,466.34z M796.73,498.94c-8.01,0-14.51-6.49-14.51-14.47      c0-8.01,6.5-14.47,14.51-14.47c7.97,0,14.43,6.46,14.43,14.47C811.16,492.45,804.7,498.94,796.73,498.94z"></path>
				<path class="st0" d="M801.59,484.43c1.47-0.55,2.92-2.36,2.92-4.98c0-4.16-3.76-5.44-5.95-5.44c-1.53,0-9.34,0-9.34,0v19.54      h4.47v-7.62c0.04,0,0.25,0,1.68,0c2.26,0,3.57,0.6,4.2,2.7c0.46,1.44,0.68,2.85,1.6,4.93c1.87,0,2.69,0.01,4.87,0.01      c-0.53-1.12-1.48-2.65-1.8-4.77C803.94,486.7,803.21,485.49,801.59,484.43z M797.33,482.07c-1.52,0-3.58,0-3.58,0v-4.49      c0,0,1.75,0,3.15,0c1.37,0,3.01,0.56,3.01,2.13C799.91,481.06,798.86,482.07,797.33,482.07z"></path>
			</g>
			<g>
				<path class="st0" d="M235.34,573.92c-5.13,5.15-11.82,10.27-18.38,12.35c-6.2,1.99-23.86,3.54-29.06-11.05      c-1.12-3.16-0.21-4.13,2.65-4.98c4.26-1.27,15.24-4.49,26.83-8.84c10.52-3.92,19.9-8.74,22.83-10.71      c5.26-3.45,6.04-8.31,3.73-13.54c-7.39-16.59-24.08-33.96-51.84-28.68c-22.06,4.21-37.86,24.07-37.86,46.78      c0,28.14,16.95,44.59,38.52,49.68c19.94,4.75,43.4-4.92,53.43-21.18C250.17,577.51,238.97,570.08,235.34,573.92z M185.38,551.78      c-2.16-5.96-0.44-24.22,9.63-27.67c10.58-3.62,17.08,1.83,20.24,12.49c1.17,3.95,0.92,8.13-0.38,9.7      c-1.88,2.27-5.22,3.64-8.23,4.64l-7.92,2.63C190.93,556.21,187.21,556.74,185.38,551.78z"></path>
				<path class="st0" d="M493.75,573.92c-5.13,5.15-11.82,10.27-18.38,12.35c-6.2,1.99-23.86,3.54-29.06-11.05      c-1.12-3.16-0.21-4.13,2.65-4.98c4.26-1.27,15.24-4.49,26.83-8.84c10.52-3.92,19.9-8.74,22.83-10.71      c5.26-3.45,6.04-8.31,3.73-13.54c-7.39-16.59-24.08-33.96-51.84-28.68c-22.06,4.21-37.86,24.07-37.86,46.78      c0,28.14,16.95,44.59,38.53,49.68c19.94,4.75,43.4-4.92,53.43-21.18C508.58,577.51,497.38,570.08,493.75,573.92z M443.79,551.78      c-1.29-3.57-1.2-11.53,1.24-18.09c1.64-4.41,4.09-7.85,8.38-9.58c4.84-1.94,8.98-1.41,12.21,0.45c3.7,2.13,6.34,6.34,8.03,12.04      c1.17,3.95,0.92,8.13-0.38,9.7c-1.88,2.27-4.8,3.42-8.23,4.64c-3.43,1.23-6.48,2.21-7.92,2.67      C449.28,556.06,445.62,556.74,443.79,551.78z"></path>
				<path class="st0" d="M690.74,573.92c-5.13,5.15-11.82,10.27-18.38,12.35c-6.2,1.99-23.86,3.54-29.06-11.05      c-1.12-3.16-0.21-4.13,2.65-4.98c4.27-1.27,15.24-4.49,26.83-8.84c10.52-3.92,19.9-8.74,22.83-10.71      c5.26-3.45,6.04-8.31,3.73-13.54c-7.39-16.59-24.08-33.96-51.84-28.68c-22.06,4.21-37.86,24.07-37.86,46.78      c0,28.14,16.95,44.59,38.53,49.68c19.94,4.75,43.4-4.92,53.43-21.18C705.57,577.51,694.37,570.08,690.74,573.92z M640.78,551.78      c-1.29-3.57-1.19-11.53,1.24-18.09c1.64-4.41,4.09-7.85,8.38-9.58c4.84-1.94,8.97-1.41,12.21,0.45      c3.7,2.13,6.34,6.34,8.03,12.04c1.17,3.95,0.92,8.13-0.38,9.7c-1.88,2.27-4.8,3.42-8.23,4.64c-3.43,1.23-6.48,2.21-7.93,2.67      C646.27,556.06,642.61,556.74,640.78,551.78z"></path>
				<path class="st0" d="M109.64,579.26c0,3.77-1.19,7.91-4.09,9.2l-6.29,2.84c-1.13,0.52-1.44,1.34-1.44,2.59      c0,0.31,0.02,0.51,0.09,0.94l0.74,7.14c0.33,1.94,1.66,2.26,4.23,2.26h45.57c2.57,0,3.9-0.32,4.23-2.26l0.74-7.14      c0.06-0.42,0.09-0.62,0.09-0.94c0-1.25-0.32-2.08-1.45-2.59l-6.29-2.84c-2.91-1.3-4.09-5.43-4.09-9.2v-78.95      c0-3.77,1.19-7.91,4.09-9.2l6.29-2.85c1.13-0.51,1.45-1.35,1.45-2.59c0-0.31-0.03-0.51-0.09-0.93l-0.74-5.36      c-0.33-1.94-1.66-2.26-4.23-2.26H105c-2.57,0-3.9,0.32-4.23,2.26l-0.74,5.36c-0.06,0.42-0.09,0.62-0.09,0.93      c0,1.25,0.32,2.08,1.45,2.59l5.13,2.85c2.93,1.67,3.13,5.43,3.13,9.2v22.02c0,1.53-1.24,2.77-2.77,2.77H82.18      c-1.53,0-2.77-1.24-2.77-2.77v-22.02c0-3.77,0.19-7.53,3.12-9.2l5.13-2.85c1.13-0.51,1.45-1.35,1.45-2.59      c0-0.31-0.03-0.51-0.09-0.93l-0.74-5.36c-0.33-1.94-1.66-2.26-4.23-2.26H40.61c-2.57,0-3.9,0.32-4.23,2.26l-0.74,5.36      c-0.06,0.42-0.09,0.62-0.09,0.93c0,1.25,0.32,2.08,1.45,2.59l6.29,2.85c2.91,1.3,4.09,5.43,4.09,9.2v78.95      c0,3.77-1.19,7.91-4.09,9.2l-6.29,2.84c-1.13,0.52-1.45,1.34-1.45,2.59c0,0.31,0.03,0.51,0.09,0.94l0.74,7.14      c0.33,1.94,1.66,2.26,4.23,2.26h45.57c2.57,0,3.9-0.32,4.23-2.26l0.74-7.14c0.06-0.42,0.09-0.62,0.09-0.94      c0-1.25-0.32-2.08-1.45-2.59l-6.29-2.84c-2.91-1.3-4.09-5.43-4.09-9.2v-32.1c0-1.53,1.24-2.77,2.77-2.77h24.69      c1.53,0,2.77,1.24,2.77,2.77V579.26z"></path>
				<g>
					<ellipse class="st0" cx="272.83" cy="490.41" rx="16.45" ry="15.87"></ellipse>
					<path class="st0" d="M254.83,604.24c-2.47,0-3.74-0.3-4.06-2.17l-0.71-7.12c-0.06-0.4-0.05-0.6-0.05-0.9       c0-1.2,0.33-1.93,1.35-2.49l4.9-2.73c2.72-1.31,3.93-5.21,3.93-8.83v-45.08c0-3.77-0.65-8.59-3.96-10.24l-3.14-1.81       c-1.13-0.52-1.44-1.35-1.44-2.59c0-0.31,0.02-0.51,0.09-0.93l0.74-5.36c0.33-1.95,1.66-2.26,4.23-2.26h30.78       c1.53,0,2.77,1.24,2.77,2.78v65.51c0,3.62,1.21,7.52,3.93,8.83l4.89,2.73c1.02,0.55,1.35,1.29,1.35,2.49       c0,0.3,0.01,0.5-0.05,0.9l-0.71,7.12c-0.32,1.86-1.59,2.17-4.06,2.17H254.83z"></path>
				</g>
				<path class="st0" d="M348.01,516.53c0,0,1.73-0.84,4.85-2.36c6.16-2.89,18.23-8.08,28.21-4.9c8.64,2.76,16.11,9.04,16.11,25.5      c0,18.71,0,42.54,0,49.89c0,2.13,0.09,3.01,1.08,3.55c1.32,0.73,3.64-1.45,5.84-2.58c2.23-1.15,3.46,0.2,4.83,1.71      c1.2,1.32,2.63,3.18,1.46,5.63c-3.68,7.72-11.94,12.16-21.6,12.16c-9.13,0-20.75-5.23-20.75-18.91c0-13.68,0-41.9,0-48.03      c0-7.34-5.32-9.89-9.46-9.37c-6.24,0.77-10.78,6-10.78,15.31l0,35.89c0,3.62,1.21,7.52,3.93,8.83l4.9,2.73      c1.02,0.55,1.35,1.29,1.35,2.49c0,0.3,0.01,0.5-0.05,0.9l-0.71,7.12c-0.32,1.86-1.59,2.17-4.06,2.17h-40.79      c-2.47,0-3.74-0.3-4.06-2.17l-0.71-7.12c-0.06-0.4-0.05-0.6-0.05-0.9c0-1.2,0.33-1.93,1.35-2.49l4.9-2.73      c2.72-1.31,3.93-5.21,3.93-8.83v-45.08c0-3.77-0.64-8.59-3.96-10.24l-3.13-1.81c-1.13-0.52-1.45-1.35-1.45-2.59      c0-0.31,0.03-0.51,0.09-0.93l0.74-5.36c0.33-1.95,1.66-2.26,4.23-2.26h29c2.28,0,3.17,1.3,3.82,2.78L348.01,516.53z"></path>
				<path class="st0" d="M746.05,516.53c0,0,1.73-0.84,4.85-2.36c6.16-2.89,18.23-8.08,28.21-4.9c8.64,2.76,16.11,9.04,16.11,25.5      c0,18.71,0,42.54,0,49.89c0,2.13,0.09,3.01,1.08,3.55c1.33,0.73,3.64-1.45,5.84-2.58c2.23-1.15,3.46,0.2,4.83,1.71      c1.2,1.32,2.63,3.18,1.46,5.63c-3.68,7.72-11.94,12.16-21.6,12.16c-9.13,0-20.75-5.23-20.75-18.91c0-13.68,0-41.9,0-48.03      c0-7.34-5.32-9.89-9.46-9.37c-6.24,0.77-10.78,6-10.78,15.31l0,35.89c0,3.62,1.21,7.52,3.93,8.83l4.9,2.73      c1.02,0.55,1.35,1.29,1.35,2.49c0,0.3,0.01,0.5-0.05,0.9l-0.71,7.12c-0.31,1.86-1.59,2.17-4.06,2.17H710.4      c-2.47,0-3.74-0.3-4.06-2.17l-0.71-7.12c-0.06-0.4-0.05-0.6-0.05-0.9c0-1.2,0.33-1.93,1.35-2.49l4.9-2.73      c2.72-1.31,3.93-5.21,3.93-8.83v-45.08c0-3.77-0.65-8.59-3.96-10.24l-3.13-1.81c-1.13-0.52-1.45-1.35-1.45-2.59      c0-0.31,0.03-0.51,0.09-0.93l0.74-5.36c0.33-1.95,1.65-2.26,4.23-2.26h29c2.29,0,3.17,1.3,3.82,2.78L746.05,516.53z"></path>
				<path class="st0" d="M598.35,581.25c2.17,3.48,4.81,6.27,7.53,7.59l4.89,2.73c1.02,0.55,1.35,1.29,1.35,2.49      c0,0.3,0.01,0.5-0.05,0.9l-0.71,7.12c-0.32,1.86-1.59,2.17-4.06,2.17h-24.62c-4.21,0-4.53-1.22-6.43-4.65l-20.65-37.6      l-7.76,7.44l0,10.58c0,3.62,1.7,7.41,4.52,8.83l4.89,2.73c1.02,0.55,1.36,1.29,1.36,2.49c0,0.3,0.01,0.5-0.05,0.9l-0.71,7.12      c-0.32,1.86-1.59,2.17-4.06,2.17H513c-2.47,0-3.74-0.3-4.06-2.17l-0.71-7.12c-0.06-0.4-0.05-0.6-0.05-0.9      c0-1.2,0.33-1.93,1.35-2.49l4.9-2.73c2.72-1.31,3.93-5.21,3.93-8.83V499.3c0-3.62-1.12-7.39-3.93-8.83l-4.9-2.73      c-1.02-0.56-1.35-1.29-1.35-2.49c0-0.3-0.01-0.49,0.05-0.89l0.71-5.08c0.32-1.86,1.59-2.17,4.06-2.17h29.56      c2.91,0,5.26,2.36,5.26,5.27v61.26l13.14-11.86c1.87-1.62,4.95-4.3,6.14-5.5c1.2-1.19,1.44-2.97-0.26-3.68l-4.64-2.1      c-1.03-0.47-1.32-1.22-1.32-2.36c0-0.28,0.02-0.47,0.08-0.85l0.67-6.51c0.3-1.77,1.51-2.06,3.86-2.06h35.4      c2.35,0,3.56,0.29,3.86,2.06l0.68,6.51c0.05,0.38,0.07,0.57,0.08,0.85c0.07,1.41-1.59,2.09-2.62,2.56c0,0-2.52,0.73-4.8,2.03      c-2.29,1.3-4.72,3.25-7.81,6.01l-13.65,13.1L598.35,581.25z"></path>
			</g>
		</g>
		<g>
			<g>
				<path class="st1" d="M567.26,408.18l0.04-0.61h-4.04c-0.16,3.62,2.05,6.05,5.71,6.05c3.99,0,6.41-2.43,6.41-6.43      c0-2.31-0.92-4.53-3.33-5.11v-0.08c2.11-0.84,2.67-3.05,2.67-5.09c0-3.46-2.01-5.67-5.51-5.67c-3.97,0-5.22,2.9-5.09,6.4h3.76      v-0.45c0-0.95,0.2-2.25,1.44-2.25c1.25,0,1.49,1.25,1.49,2.21c0,2.41-0.98,2.87-3.32,2.87v3.76c2.45-0.08,3.26,0.59,3.26,3.03      c0,1.28-0.11,3.07-1.86,3.07C567.73,409.87,567.26,408.89,567.26,408.18"></path>
				<polygon class="st1" points="560.36,391.57 548.64,391.57 548.64,395.29 554.48,395.29 547.71,413.28 552.2,413.28     "></polygon>
				<path class="st1" d="M539.57,401.58v-0.06c2.01-0.67,2.98-2.52,2.98-4.59c0-3.18-2.14-5.69-5.42-5.69      c-3.33,0-5.44,2.51-5.44,5.69c0,2.07,1.03,3.92,2.95,4.58v0.07c-2.68,0.9-3.77,2.94-3.77,5.74c0,3.57,2.63,6.3,6.26,6.3      c3.64,0,6.2-2.73,6.2-6.3C543.33,404.59,542.3,402.44,539.57,401.58 M537.04,394.6c1.17,0,1.32,1.5,1.32,2.31      c0,0.77,0,2.44-1.32,2.44c-1.08,0-1.21-1.66-1.21-2.46C535.83,396.08,536.01,394.6,537.04,394.6 M537.09,409.87      c-1.49,0-1.8-1.97-1.8-3.07c0-1.13,0.31-3.15,1.77-3.15c1.39,0,1.91,2.07,1.91,3.15C538.97,407.86,538.55,409.87,537.09,409.87"></path>
				<polygon class="st1" points="524.97,391.57 518.74,391.57 518.74,395.29 520.82,395.29 520.82,413.28 524.97,413.28     "></polygon>
			</g>
			<g>
				<polygon class="st1" points="282.16,391.57 272.66,391.57 272.66,413.28 282.21,413.28 282.21,409.24 277.35,409.24       277.35,404.34 281.57,404.34 281.57,400.32 277.35,400.32 277.35,395.59 282.16,395.59     "></polygon>
				<path class="st1" d="M324.17,408.16c-1.55,0-2.76,1.21-2.76,2.71c0,1.52,1.21,2.76,2.76,2.76c1.51,0,2.68-1.24,2.68-2.76      C326.85,409.37,325.68,408.16,324.17,408.16"></path>
				<polygon class="st1" points="318.22,391.57 306.1,391.57 306.1,395.59 309.78,395.59 309.78,413.28 314.52,413.28       314.52,395.59 318.22,395.59     "></polygon>
				<path class="st1" d="M299.53,396.46v-4.19c-1.34-0.66-2.67-1.03-4.21-1.03c-4.05,0-6.21,2.91-6.21,6.37      c0,3.14,1.65,4.76,4.38,6.42c1.31,0.91,2.79,1.51,2.79,3.16c0,1.46-1.18,2.38-2.74,2.38c-1.36,0-2.46-0.44-3.55-1.17v4.12      c1.09,0.7,2.72,1.1,4.06,1.1c4.4,0,6.85-2.93,6.85-6.78c0-5.88-7.17-6.09-7.17-9.65c0-1.31,0.94-2.14,2.36-2.14      C297.41,395.06,298.54,395.7,299.53,396.46"></path>
			</g>
			<g>
				<path class="st1" d="M502.73,430.19c0.55,2.01-0.43,3.97-1.39,4.8c-0.79,0.69-1.57,1.22-1.57,1.22s-0.75,0.57-1.65,1.11      c-1.09,0.66-3.25,0.99-5-0.16c0,0-2.77-1.72-7.26-4.75c-14.25-9.63-46.06-31.2-63.45-43.57c-17.39,12.37-49.2,33.94-63.45,43.57      c-4.49,3.04-7.26,4.75-7.26,4.75c-1.74,1.15-3.9,0.82-4.99,0.16c-0.9-0.54-1.65-1.11-1.65-1.11s-0.78-0.54-1.57-1.22      c-0.96-0.83-1.95-2.79-1.39-4.8c0,0,0.14-0.57,0.41-1.6c0.28,0.55,0.63,1,0.98,1.3c0.79,0.69,1.57,1.22,1.57,1.22      s0.75,0.57,1.65,1.11c1.09,0.66,3.25,0.99,4.99-0.16c0,0,2.77-1.72,7.26-4.75c14.25-9.63,46.06-31.21,63.45-43.57      c17.39,12.37,49.19,33.94,63.45,43.57c4.49,3.04,7.26,4.75,7.26,4.75c1.74,1.15,3.9,0.82,5,0.16c0.9-0.54,1.65-1.12,1.65-1.12      s0.78-0.54,1.57-1.22c0.35-0.3,0.7-0.76,0.98-1.3C502.59,429.62,502.73,430.19,502.73,430.19z M366.22,342.91      c-17.14-12.72-47.48-36.3-61.05-46.87c-4.28-3.34-6.76-5.44-6.76-5.44c-0.52-0.41-0.89-0.91-1.17-1.44      c-0.08,0.22-0.33,0.98-0.52,1.84c-0.29,1.24,0.06,3.4,1.69,4.7c0,0,2.49,2.1,6.76,5.44c13.23,10.31,42.43,33,59.76,45.91      C365.38,345.61,365.81,344.22,366.22,342.91z M547.6,289.16c-0.28,0.53-0.66,1.03-1.17,1.44c0,0-2.49,2.1-6.77,5.44      c-13.56,10.57-43.91,34.16-61.05,46.87c0.41,1.31,0.84,2.7,1.29,4.14c17.33-12.91,46.53-35.6,59.76-45.91      c4.27-3.34,6.77-5.44,6.77-5.44c1.63-1.3,1.98-3.46,1.69-4.7C547.92,290.14,547.68,289.39,547.6,289.16z"></path>
				<path class="st2" d="M376.75,339.49l-27.43,84.29c-0.05,0.14,0,0.31,0.13,0.4c0,0,0.2,0.18,0.42,0.34      c0.22,0.16,0.45,0.29,0.45,0.29c0.13,0.1,0.3,0.09,0.42,0l71.69-52.14l71.69,52.14c0.12,0.09,0.29,0.09,0.42,0      c0,0,0.23-0.14,0.45-0.3c0.22-0.16,0.42-0.34,0.42-0.34c0.13-0.09,0.18-0.25,0.13-0.4l-27.43-84.29l71.74-52.07      c0.12-0.09,0.18-0.25,0.13-0.4c0,0-0.06-0.26-0.14-0.52c-0.08-0.26-0.19-0.5-0.19-0.5c-0.05-0.15-0.19-0.25-0.34-0.25      l-88.65,0.04l-27.36-84.32c-0.05-0.14-0.18-0.25-0.34-0.25c0,0-0.27-0.02-0.54-0.02c-0.27,0-0.54,0.02-0.54,0.02      c-0.16,0-0.29,0.1-0.34,0.25l-27.36,84.32l-88.65-0.04c-0.15,0-0.29,0.09-0.34,0.24c0,0-0.11,0.25-0.19,0.5      c-0.08,0.26-0.14,0.52-0.14,0.52c-0.05,0.15,0.01,0.31,0.13,0.4L376.75,339.49z"></path>
			</g>
		</g>
	</g>
</g>
</svg>